<?xml version="1.0" encoding="utf-8"?>
<!-- Generator: Adobe Illustrator 27.5.0, SVG Export Plug-In . SVG Version: 6.00 Build 0)  -->
<svg version="1.1" xmlns="http://www.w3.org/2000/svg" xmlns:xlink="http://www.w3.org/1999/xlink" x="0px" y="0px"
	 viewBox="0 0 500 500" style="enable-background:new 0 0 500 500;" xml:space="preserve">
<g id="BACKGROUND">
	<rect style="fill:#FFFFFF;" width="500" height="500"/>
</g>
<g id="OBJECTS">
	<g>
		<polygon style="fill:#886649;" points="332.027,79.335 248.805,79.335 248.805,36.835 332.027,50.335 		"/>
		<g>
			<path style="fill:#94BA30;" d="M410.206,419.381c0-7.75-27.948-14.487-19.448-28.987s-22.5-23.5-11-38.25s1.75-39.75,18.5-42.75
				s34.654-17.483,37.5,18.25c2.25,28.25,19,11,15,38.42c-3.158,21.652-20.396,21.188-27.504,31.58
				C416.67,407.27,410.206,429.881,410.206,419.381z"/>
			<g>
				<polygon style="fill:#664A34;" points="409.449,452.667 415.333,452.667 412.392,323.334 				"/>
				<polygon style="fill:#664A34;" points="412.392,406.668 434.116,361.334 412.392,400.501 				"/>
				<polygon style="fill:#664A34;" points="412.392,372.501 401.283,343.834 412.392,376.834 				"/>
				<polygon style="fill:#664A34;" points="422.616,385.332 434.116,379.001 422.616,383.001 				"/>
				<polygon style="fill:#664A34;" points="408.766,366.064 401.283,357.751 407.95,363.639 				"/>
			</g>
			<path style="opacity:0.4;fill:#446E2D;" d="M450.758,366.064c4-27.42-12.75-10.17-15-38.42c-1.059-13.289-4.2-19.63-8.59-22.202
				c13.154,19.128-13.66,27.537-5.66,43.036c8,15.5-1.667,32.167-15.333,28.357c-13.662-3.81-1.342,28.623-16.844,20.586
				c1.977,9.891,20.875,15.585,20.875,21.961c0,10.5,6.464-12.111,13.048-21.737C430.362,387.251,447.6,387.716,450.758,366.064z"/>
		</g>
		<rect x="248.805" y="58.833" style="opacity:0.5;fill:#886649;" width="83.194" height="5.667"/>
		<rect x="123.166" y="80.999" style="fill:#F39D54;" width="253.999" height="349.333"/>
		<rect x="123.166" y="323" style="fill:#886649;" width="253.999" height="129.667"/>
		<g>
			<rect x="132.948" y="374.5" style="fill:#FFFFFF;" width="79" height="68.335"/>
			<rect x="138.199" y="380.586" style="fill:#FFDE74;" width="68.498" height="57.66"/>
			<rect x="132.948" y="374.5" style="fill:#C9C7C0;" width="79" height="2.75"/>
			<polygon style="opacity:0.6;fill:#DDB952;" points="138.199,438.246 206.697,380.586 206.697,438.246 			"/>
			<rect x="170.565" y="379.5" style="fill:#FFFFFF;" width="3.766" height="60.875"/>
			<rect x="135.627" y="388.93" style="fill:#FFFFFF;" width="73.539" height="3.766"/>
			<path style="fill:#FFFFFF;" d="M132.948,370.25h79c0,0-14-17.897-39.5-17.897S132.948,370.25,132.948,370.25z"/>
			<rect x="129.823" y="370.25" style="fill:#FFFFFF;" width="85.25" height="4.625"/>
			<path style="fill:#C9C7C0;" d="M209.908,367.999h-74.92c-1.349,1.369-2.04,2.251-2.04,2.251h79
				C211.948,370.25,211.256,369.368,209.908,367.999z"/>
		</g>
		<polygon style="opacity:0.5;fill:#886649;" points="377.166,351 377.166,344 123.166,344 123.166,351 219.166,351 
			219.166,360.999 219.166,367.999 377.166,367.999 377.166,360.999 227.915,360.999 227.915,351 		"/>
		<rect x="116.832" y="323" style="fill:#E7683A;" width="266.668" height="21"/>
		<rect x="123.166" y="211.25" style="opacity:0.5;fill:#F39D54;" width="253.999" height="7"/>
		<g>
			<polygon style="opacity:0.5;fill:#F39D54;" points="351.037,102.5 351.037,93.938 347.177,93.938 347.177,102.5 321.049,102.5 
				321.049,93.844 317.188,93.844 317.188,102.5 291.058,102.5 291.058,93.906 287.197,93.906 287.197,102.5 261.069,102.5 
				261.069,93.813 257.208,93.813 257.208,102.5 231.079,102.5 231.079,93.875 227.218,93.875 227.218,102.5 201.09,102.5 
				201.09,93.813 197.229,93.813 197.229,102.5 171.101,102.5 171.101,93.875 167.24,93.875 167.24,102.5 141.111,102.5 
				141.111,93.875 137.25,93.875 137.25,102.5 128.481,102.5 128.481,107 377.165,107 377.165,102.5 			"/>
			<rect x="116.832" y="70.499" style="fill:#E7683A;" width="266.668" height="21"/>
			<rect x="116.832" y="79.335" style="opacity:0.5;fill:#F39D54;" width="266.668" height="5.329"/>
			<rect x="110.499" y="63.669" style="fill:#E7683A;" width="279.333" height="15.667"/>
			<g>
				<g>
					<rect x="123.166" y="91.499" style="fill:#E7683A;" width="14.084" height="15.5"/>
					<g>
						<rect x="125.88" y="95.652" style="fill:#F39D54;" width="2.601" height="9.217"/>
						<rect x="131.935" y="95.652" style="fill:#F39D54;" width="2.602" height="9.217"/>
					</g>
				</g>
				<g>
					<rect x="153.156" y="91.499" style="fill:#E7683A;" width="14.084" height="15.5"/>
					<g>
						<rect x="155.87" y="95.652" style="fill:#F39D54;" width="2.602" height="9.217"/>
						<rect x="161.924" y="95.652" style="fill:#F39D54;" width="2.602" height="9.217"/>
					</g>
				</g>
				<g>
					<rect x="183.145" y="91.499" style="fill:#E7683A;" width="14.084" height="15.5"/>
					<g>
						<rect x="185.859" y="95.652" style="fill:#F39D54;" width="2.601" height="9.217"/>
						<rect x="191.914" y="95.652" style="fill:#F39D54;" width="2.602" height="9.217"/>
					</g>
				</g>
				<g>
					<rect x="213.135" y="91.499" style="fill:#E7683A;" width="14.083" height="15.5"/>
					<g>
						<rect x="215.849" y="95.652" style="fill:#F39D54;" width="2.601" height="9.217"/>
						<rect x="221.904" y="95.652" style="fill:#F39D54;" width="2.602" height="9.217"/>
					</g>
				</g>
				<g>
					<rect x="243.124" y="91.499" style="fill:#E7683A;" width="14.084" height="15.5"/>
					<g>
						<rect x="245.838" y="95.652" style="fill:#F39D54;" width="2.601" height="9.217"/>
						<rect x="251.893" y="95.652" style="fill:#F39D54;" width="2.602" height="9.217"/>
					</g>
				</g>
				<g>
					<rect x="273.113" y="91.499" style="fill:#E7683A;" width="14.084" height="15.5"/>
					<g>
						<rect x="275.827" y="95.652" style="fill:#F39D54;" width="2.601" height="9.217"/>
						<rect x="281.882" y="95.652" style="fill:#F39D54;" width="2.602" height="9.217"/>
					</g>
				</g>
				<g>
					<rect x="303.102" y="91.499" style="fill:#E7683A;" width="14.084" height="15.5"/>
					<g>
						<rect x="305.817" y="95.652" style="fill:#F39D54;" width="2.6" height="9.217"/>
						<rect x="311.872" y="95.652" style="fill:#F39D54;" width="2.602" height="9.217"/>
					</g>
				</g>
				<g>
					<rect x="333.093" y="91.499" style="fill:#E7683A;" width="14.084" height="15.5"/>
					<g>
						<rect x="335.807" y="95.652" style="fill:#F39D54;" width="2.601" height="9.217"/>
						<rect x="341.861" y="95.652" style="fill:#F39D54;" width="2.602" height="9.217"/>
					</g>
				</g>
				<g>
					<rect x="363.082" y="91.499" style="fill:#E7683A;" width="14.084" height="15.5"/>
					<g>
						<rect x="365.796" y="95.652" style="fill:#F39D54;" width="2.601" height="9.217"/>
						<rect x="371.851" y="95.652" style="fill:#F39D54;" width="2.602" height="9.217"/>
					</g>
				</g>
			</g>
			<rect x="123.166" y="91.499" style="opacity:0.5;fill:#F39D54;" width="253.999" height="2.5"/>
		</g>
		<g>
			<g>
				<g>
					<rect x="227.666" y="238.351" style="fill:#FFFFFF;" width="45" height="53"/>
					<rect x="231.7" y="243.101" style="fill:#FFDE74;" width="36.933" height="43.5"/>
					<polygon style="opacity:0.6;fill:#DDB952;" points="231.7,286.601 268.633,243.101 268.633,286.601 					"/>
					<rect x="224.832" y="232.999" style="fill:#FFFFFF;" width="50.668" height="6.667"/>
					<rect x="227.666" y="239.665" style="fill:#C9C7C0;" width="45" height="1.834"/>
					<rect x="248.805" y="242.182" style="fill:#FFFFFF;" width="2.722" height="46.417"/>
					<rect x="229.082" y="264.029" style="fill:#FFFFFF;" width="42.3" height="2.723"/>
				</g>
			</g>
			<g>
				<g>
					<rect x="308.166" y="238.351" style="fill:#FFFFFF;" width="45" height="53"/>
					<rect x="312.199" y="243.101" style="fill:#FFDE74;" width="36.934" height="43.5"/>
					<polygon style="opacity:0.6;fill:#DDB952;" points="312.199,286.601 349.133,243.101 349.133,286.601 					"/>
					<rect x="305.332" y="232.999" style="fill:#FFFFFF;" width="50.668" height="6.667"/>
					<rect x="308.166" y="239.665" style="fill:#C9C7C0;" width="45" height="1.834"/>
					<rect x="329.305" y="242.182" style="fill:#FFFFFF;" width="2.723" height="46.417"/>
					<rect x="309.582" y="264.029" style="fill:#FFFFFF;" width="42.301" height="2.723"/>
				</g>
			</g>
			<g>
				<g>
					<rect x="147.167" y="238.351" style="fill:#FFFFFF;" width="45" height="53"/>
					<rect x="151.2" y="243.101" style="fill:#FFDE74;" width="36.934" height="43.5"/>
					<polygon style="opacity:0.6;fill:#DDB952;" points="151.2,286.601 188.133,243.101 188.133,286.601 					"/>
					<rect x="144.332" y="232.999" style="fill:#FFFFFF;" width="50.668" height="6.667"/>
					<rect x="147.167" y="239.665" style="fill:#C9C7C0;" width="45" height="1.834"/>
					<rect x="168.305" y="242.182" style="fill:#FFFFFF;" width="2.723" height="46.417"/>
					<rect x="148.582" y="264.029" style="fill:#FFFFFF;" width="42.301" height="2.723"/>
				</g>
			</g>
		</g>
		<g>
			<g>
				<g>
					<g>
						<rect x="227.666" y="121.104" style="fill:#FFFFFF;" width="45" height="53"/>
						<rect x="231.7" y="125.854" style="fill:#FFDE74;" width="36.933" height="43.5"/>
						<polygon style="opacity:0.6;fill:#DDB952;" points="231.7,169.355 268.633,125.854 268.633,169.355 						"/>
						<rect x="224.832" y="115.753" style="fill:#FFFFFF;" width="50.668" height="6.667"/>
						<rect x="227.666" y="122.419" style="fill:#C9C7C0;" width="45" height="1.834"/>
						<rect x="248.805" y="124.936" style="fill:#FFFFFF;" width="2.722" height="46.417"/>
						<rect x="229.082" y="146.783" style="fill:#FFFFFF;" width="42.3" height="2.723"/>
					</g>
				</g>
				<g>
					<g>
						<rect x="308.166" y="121.104" style="fill:#FFFFFF;" width="45" height="53"/>
						<rect x="312.199" y="125.854" style="fill:#FFDE74;" width="36.934" height="43.5"/>
						<polygon style="opacity:0.6;fill:#DDB952;" points="312.199,169.355 349.133,125.854 349.133,169.355 						"/>
						<rect x="305.332" y="115.753" style="fill:#FFFFFF;" width="50.668" height="6.667"/>
						<rect x="308.166" y="122.419" style="fill:#C9C7C0;" width="45" height="1.834"/>
						<rect x="329.305" y="124.936" style="fill:#FFFFFF;" width="2.723" height="46.417"/>
						<rect x="309.582" y="146.783" style="fill:#FFFFFF;" width="42.301" height="2.723"/>
					</g>
				</g>
				<g>
					<g>
						<rect x="147.167" y="121.104" style="fill:#FFFFFF;" width="45" height="53"/>
						<rect x="151.2" y="125.854" style="fill:#FFDE74;" width="36.934" height="43.5"/>
						<polygon style="opacity:0.6;fill:#DDB952;" points="151.2,169.355 188.133,125.854 188.133,169.355 						"/>
						<rect x="144.332" y="115.753" style="fill:#FFFFFF;" width="50.668" height="6.667"/>
						<rect x="147.167" y="122.419" style="fill:#C9C7C0;" width="45" height="1.834"/>
						<rect x="168.305" y="124.936" style="fill:#FFFFFF;" width="2.723" height="46.417"/>
						<rect x="148.582" y="146.783" style="fill:#FFFFFF;" width="42.301" height="2.723"/>
					</g>
				</g>
			</g>
			<g>
				<g>
					<rect x="144.408" y="175.459" style="fill:#FFFFFF;" width="50.517" height="3.5"/>
					<rect x="144.408" y="178.959" style="opacity:0.5;fill:#F39D54;" width="50.517" height="2.229"/>
					<rect x="147.167" y="174.105" style="fill:#C9C7C0;" width="45" height="1.355"/>
				</g>
				<g>
					<rect x="305.408" y="175.459" style="fill:#FFFFFF;" width="50.517" height="3.5"/>
					<rect x="305.407" y="178.959" style="opacity:0.5;fill:#F39D54;" width="50.517" height="2.229"/>
					<rect x="308.166" y="174.105" style="fill:#C9C7C0;" width="45" height="1.355"/>
				</g>
				<g>
					<rect x="224.909" y="175.459" style="fill:#FFFFFF;" width="50.516" height="3.5"/>
					<rect x="224.908" y="178.959" style="opacity:0.5;fill:#F39D54;" width="50.516" height="2.229"/>
					<rect x="227.666" y="174.105" style="fill:#C9C7C0;" width="45" height="1.355"/>
				</g>
			</g>
		</g>
		<g>
			<g>
				<rect x="144.408" y="292.705" style="fill:#FFFFFF;" width="50.517" height="3.5"/>
				<rect x="144.408" y="296.205" style="opacity:0.5;fill:#F39D54;" width="50.517" height="2.228"/>
				<rect x="147.167" y="291.351" style="fill:#C9C7C0;" width="45" height="1.355"/>
			</g>
			<g>
				<rect x="305.408" y="292.705" style="fill:#FFFFFF;" width="50.517" height="3.5"/>
				<rect x="305.407" y="296.205" style="opacity:0.5;fill:#F39D54;" width="50.517" height="2.228"/>
				<rect x="308.166" y="291.351" style="fill:#C9C7C0;" width="45" height="1.355"/>
			</g>
			<g>
				<rect x="224.909" y="292.705" style="fill:#FFFFFF;" width="50.516" height="3.5"/>
				<rect x="224.908" y="296.205" style="opacity:0.5;fill:#F39D54;" width="50.516" height="2.228"/>
				<rect x="227.666" y="291.351" style="fill:#C9C7C0;" width="45" height="1.355"/>
			</g>
		</g>
		<rect x="227.915" y="311.666" style="fill:#E7683A;" width="163.334" height="49.333"/>
		<rect x="233.833" y="317.332" style="fill:#FFFFFF;" width="151.667" height="37.666"/>
		<rect x="219.166" y="323" style="opacity:0.5;fill:#E7683A;" width="8.749" height="21"/>
		<rect x="123.166" y="318.334" style="opacity:0.5;fill:#F39D54;" width="104.749" height="4.666"/>
		<rect x="123.166" y="185.584" style="opacity:0.5;fill:#F39D54;" width="253.999" height="4.666"/>
		<rect x="227.915" y="307" style="opacity:0.5;fill:#F39D54;" width="149.251" height="4.666"/>
		<rect x="116.832" y="190.25" style="fill:#E7683A;" width="266.668" height="21"/>
		<rect x="362.666" y="315" style="fill:#E7683A;" width="25.25" height="42.75"/>
		<g>
			<polygon style="fill:#FFDE74;" points="377.166,318.85 378.886,322.333 382.729,322.892 379.948,325.603 380.604,329.432 
				377.166,327.624 373.727,329.432 374.384,325.603 371.602,322.892 375.446,322.333 			"/>
			<polygon style="fill:#FFDE74;" points="377.166,330.81 378.886,334.294 382.729,334.853 379.948,337.565 380.604,341.393 
				377.166,339.585 373.727,341.393 374.384,337.565 371.602,334.853 375.446,334.294 			"/>
			<polygon style="fill:#FFDE74;" points="377.166,342.772 378.886,346.254 382.729,346.814 379.948,349.524 380.604,353.353 
				377.166,351.546 373.727,353.353 374.384,349.524 371.602,346.814 375.446,346.254 			"/>
		</g>
		<g>
			<rect x="303.666" y="367.999" style="fill:#664A34;" width="46" height="84.668"/>
			<rect x="308.168" y="373.667" style="fill:#FFDE74;" width="36.333" height="57"/>
			<polygon style="opacity:0.6;fill:#DDB952;" points="308.168,430.667 344.501,373.667 344.501,430.667 			"/>
			<rect x="306.584" y="383.873" style="fill:#664A34;" width="39.917" height="3.339"/>
			<rect x="324.996" y="371.334" style="fill:#664A34;" width="3.339" height="60.666"/>
			<rect x="306.584" y="400.497" style="fill:#664A34;" width="39.917" height="3.34"/>
			<rect x="305.834" y="417.122" style="fill:#664A34;" width="39.917" height="3.339"/>
			<circle style="fill:#886649;" cx="305.834" cy="413.375" r="1.438"/>
		</g>
		<g>
			<rect x="258.383" y="367.999" style="fill:#664A34;" width="46" height="84.668"/>
			<rect x="263.548" y="373.667" style="fill:#FFDE74;" width="36.333" height="57"/>
			<polygon style="opacity:0.6;fill:#DDB952;" points="299.881,430.667 263.548,373.667 263.548,430.667 			"/>
			<rect x="261.548" y="383.873" style="fill:#664A34;" width="39.917" height="3.339"/>
			<rect x="279.714" y="371.334" style="fill:#664A34;" width="3.339" height="60.666"/>
			<rect x="261.548" y="400.497" style="fill:#664A34;" width="39.917" height="3.34"/>
			<rect x="262.298" y="417.122" style="fill:#664A34;" width="39.917" height="3.339"/>
			<circle style="fill:#886649;" cx="302.215" cy="413.375" r="1.438"/>
		</g>
		<rect x="116.832" y="442.835" style="fill:#664A34;" width="154.55" height="9.832"/>
		<rect x="349.666" y="442.835" style="fill:#664A34;" width="33.834" height="9.832"/>
		<text transform="matrix(1 0 0 1 254.0498 351.5)" style="fill:#886649; font-family:'LeckerliOne'; font-size:39.2029px;">Hotel</text>
		<rect x="255.777" y="442.835" style="fill:#B28869;" width="95.75" height="3.666"/>
		<rect x="252.006" y="449.001" style="fill:#B28869;" width="104.327" height="3.666"/>
		<g>
			<path style="fill:#94BA30;" d="M223.823,428.451c0,0-4.039-1.139-4-5.166c0.045-4.627,6.616-3.416,8.866,0
				c-2.666-3.167-5.583-8.501-3.083-10.084s9.434-0.083,9.801,10.667c-0.051-5.5,1.866-12.065,4.949-11.199
				c3.083,0.866,3.417,7.616,1,10.866c2.25-2.084,4.397-9.083,8.24-6.75c3.842,2.333,2.07,10.105-1.585,11.803
				C242.106,428.588,223.823,428.451,223.823,428.451z"/>
			<path style="fill:#446E2D;" d="M249.596,416.785c-0.485-0.295-0.943-0.438-1.378-0.465c2.309,1.883,1.41,6.464-0.406,7.746
				c-7.345,5.184-5.36-5.022-8.178-1.428c-5.542,7.07-5.709-4.764-6.292-0.514c-0.583,4.25-5.921-0.667-5.607,1.25
				c0.314,1.917-1.456,4.438-7.005,2.889c1.18,1.648,3.092,2.188,3.092,2.188s18.489,0.507,24.395,0.507
				C251.872,427.261,253.438,419.118,249.596,416.785z"/>
			<rect x="227.736" y="448.846" style="fill:#B28869;" width="16.063" height="3.821"/>
			<rect x="227.736" y="448.334" style="fill:#664A34;" width="16.063" height="2.791"/>
			<path style="fill:#B28869;" d="M247.812,443.834c0,3.313-2.686,6-6,6h-12.09c-3.314,0-6-2.687-6-6v-7c0-3.314,2.686-6,6-6h12.09
				c3.314,0,6,2.686,6,6V443.834z"/>
			<rect x="223.722" y="436.424" style="fill:#664A34;" width="24.09" height="1.784"/>
			<path style="fill:#B28869;" d="M251.351,432.451c0,2.209-1.791,4-4,4h-23.167c-2.209,0-4-1.791-4-4l0,0c0-2.209,1.791-4,4-4
				h23.167C249.56,428.451,251.351,430.242,251.351,432.451L251.351,432.451z"/>
			<path style="fill:#664A34;" d="M249.276,430.555c-0.351-0.386-0.994-0.846-2.068-0.846h-11.083h-0.714h-11.083
				c-1.074,0-1.718,0.46-2.068,0.846c-0.439,0.482-0.682,1.13-0.682,1.822c0,1.263,0.827,2.54,2.406,2.54
				c0.93,0,1.66-0.372,2.004-1.021c0.28-0.527,0.248-1.158-0.083-1.647c-0.382-0.563-1.071-0.835-1.879-0.746
				c-0.274,0.029-0.473,0.276-0.443,0.551c0.029,0.275,0.284,0.47,0.551,0.443c0.436-0.048,0.777,0.067,0.943,0.313
				c0.123,0.182,0.134,0.418,0.028,0.617c-0.165,0.312-0.574,0.49-1.121,0.49c-0.966,0-1.406-0.798-1.406-1.54
				c0-0.443,0.15-0.852,0.421-1.15c0.309-0.34,0.769-0.518,1.329-0.518h11.083h0.714h11.083c0.561,0,1.021,0.179,1.329,0.518
				c0.271,0.298,0.421,0.706,0.421,1.15c0,0.742-0.44,1.54-1.406,1.54c-0.547,0-0.956-0.179-1.121-0.49
				c-0.105-0.199-0.095-0.436,0.028-0.617c0.166-0.245,0.508-0.36,0.943-0.313c0.267,0.026,0.521-0.168,0.551-0.443
				c0.029-0.274-0.169-0.522-0.443-0.551c-0.808-0.089-1.497,0.184-1.879,0.746c-0.331,0.488-0.363,1.119-0.083,1.647
				c0.344,0.649,1.074,1.021,2.004,1.021c1.579,0,2.406-1.277,2.406-2.54C249.957,431.685,249.715,431.037,249.276,430.555z"/>
			<ellipse style="fill:#446E2D;" cx="228.295" cy="415.75" rx="0.578" ry="1.313"/>
			<ellipse style="fill:#446E2D;" cx="239.795" cy="415.75" rx="0.578" ry="1.313"/>
			<path style="fill:#94BA30;" d="M223.187,419.572c0.576,0.754,0.773,1.571,0.441,1.825c-0.332,0.254-1.068-0.152-1.644-0.907
				c-0.576-0.754-0.774-1.571-0.441-1.825C221.874,418.411,222.611,418.817,223.187,419.572z"/>
			<path style="fill:#446E2D;" d="M227.17,415.896c0.29,0.501,0.347,1.01,0.126,1.138c-0.221,0.127-0.634-0.175-0.923-0.675
				c-0.29-0.501-0.347-1.01-0.126-1.138C226.468,415.094,226.881,415.396,227.17,415.896z"/>
			<path style="fill:#446E2D;" d="M223.334,420.358c0.29,0.501,0.347,1.01,0.126,1.138c-0.221,0.127-0.634-0.175-0.923-0.675
				c-0.29-0.501-0.347-1.01-0.126-1.138C222.632,419.557,223.045,419.858,223.334,420.358z"/>
			<path style="fill:#446E2D;" d="M238.786,416.492c0.188,0.323,0.224,0.652,0.081,0.734c-0.143,0.082-0.409-0.113-0.596-0.436
				c-0.187-0.323-0.224-0.651-0.081-0.734C238.332,415.976,238.599,416.17,238.786,416.492z"/>
		</g>
		<g>
			<path style="fill:#94BA30;" d="M360.333,428.451c0,0-4.039-1.139-4-5.166c0.045-4.627,6.616-3.416,8.866,0
				c-2.666-3.167-5.583-8.501-3.083-10.084s9.435-0.083,9.801,10.667c-0.051-5.5,1.866-12.065,4.949-11.199
				c3.083,0.866,3.417,7.616,1,10.866c2.25-2.084,4.398-9.083,8.24-6.75c3.843,2.333,2.07,10.105-1.585,11.803
				C378.616,428.588,360.333,428.451,360.333,428.451z"/>
			<path style="fill:#446E2D;" d="M386.106,416.785c-0.485-0.295-0.943-0.438-1.378-0.465c2.309,1.883,1.41,6.464-0.406,7.746
				c-7.345,5.184-5.36-5.022-8.178-1.428c-5.542,7.07-5.709-4.764-6.292-0.514c-0.583,4.25-5.921-0.667-5.606,1.25
				c0.314,1.917-1.456,4.438-7.005,2.889c1.18,1.648,3.092,2.188,3.092,2.188s18.489,0.507,24.394,0.507
				C388.383,427.261,389.949,419.118,386.106,416.785z"/>
			<rect x="364.246" y="448.846" style="fill:#B28869;" width="16.063" height="3.821"/>
			<rect x="364.246" y="448.334" style="fill:#664A34;" width="16.063" height="2.791"/>
			<path style="fill:#B28869;" d="M384.322,443.834c0,3.313-2.686,6-6,6h-12.09c-3.314,0-6-2.687-6-6v-7c0-3.314,2.686-6,6-6h12.09
				c3.314,0,6,2.686,6,6V443.834z"/>
			<rect x="360.232" y="436.424" style="fill:#664A34;" width="24.09" height="1.784"/>
			<path style="fill:#B28869;" d="M387.861,432.451c0,2.209-1.791,4-4,4h-23.167c-2.209,0-4-1.791-4-4l0,0c0-2.209,1.791-4,4-4
				h23.167C386.07,428.451,387.861,430.242,387.861,432.451L387.861,432.451z"/>
			<path style="fill:#664A34;" d="M385.786,430.555c-0.351-0.386-0.994-0.846-2.068-0.846h-11.083h-0.714h-11.083
				c-1.074,0-1.718,0.46-2.068,0.846c-0.439,0.482-0.682,1.13-0.682,1.822c0,1.263,0.827,2.54,2.406,2.54
				c0.93,0,1.66-0.372,2.004-1.021c0.28-0.527,0.248-1.158-0.083-1.647c-0.382-0.563-1.071-0.835-1.879-0.746
				c-0.274,0.029-0.473,0.276-0.443,0.551c0.029,0.275,0.284,0.47,0.551,0.443c0.436-0.048,0.777,0.067,0.943,0.313
				c0.123,0.182,0.134,0.418,0.028,0.617c-0.165,0.312-0.574,0.49-1.121,0.49c-0.966,0-1.406-0.798-1.406-1.54
				c0-0.443,0.149-0.852,0.421-1.15c0.309-0.34,0.768-0.518,1.329-0.518h11.083h0.714h11.083c0.56,0,1.02,0.179,1.329,0.518
				c0.271,0.298,0.421,0.706,0.421,1.15c0,0.742-0.441,1.54-1.406,1.54c-0.547,0-0.956-0.179-1.121-0.49
				c-0.105-0.199-0.095-0.436,0.028-0.617c0.166-0.245,0.508-0.36,0.943-0.313c0.267,0.026,0.522-0.168,0.551-0.443
				c0.029-0.274-0.169-0.522-0.443-0.551c-0.808-0.089-1.497,0.184-1.879,0.746c-0.331,0.488-0.363,1.119-0.083,1.647
				c0.344,0.649,1.074,1.021,2.004,1.021c1.579,0,2.406-1.277,2.406-2.54C386.468,431.685,386.226,431.037,385.786,430.555z"/>
			<path style="fill:#446E2D;" d="M365.384,415.75c0,0.725-0.259,1.313-0.578,1.313c-0.319,0-0.578-0.588-0.578-1.313
				s0.259-1.313,0.578-1.313C365.125,414.438,365.384,415.025,365.384,415.75z"/>
			<path style="fill:#446E2D;" d="M376.884,415.75c0,0.725-0.259,1.313-0.578,1.313c-0.319,0-0.578-0.588-0.578-1.313
				s0.259-1.313,0.578-1.313C376.625,414.438,376.884,415.025,376.884,415.75z"/>
			<path style="fill:#94BA30;" d="M359.697,419.572c0.576,0.754,0.773,1.571,0.441,1.825c-0.332,0.254-1.068-0.152-1.645-0.907
				c-0.576-0.754-0.773-1.571-0.441-1.825C358.385,418.411,359.121,418.817,359.697,419.572z"/>
			<path style="fill:#446E2D;" d="M363.681,415.896c0.29,0.501,0.347,1.01,0.126,1.138c-0.221,0.127-0.634-0.175-0.923-0.675
				c-0.29-0.501-0.347-1.01-0.126-1.138C362.978,415.094,363.392,415.396,363.681,415.896z"/>
			<path style="fill:#446E2D;" d="M359.845,420.358c0.29,0.501,0.347,1.01,0.126,1.138c-0.221,0.127-0.634-0.175-0.923-0.675
				c-0.29-0.501-0.347-1.01-0.126-1.138C359.143,419.557,359.556,419.858,359.845,420.358z"/>
			<path style="fill:#446E2D;" d="M375.296,416.492c0.188,0.323,0.224,0.652,0.081,0.734c-0.143,0.082-0.409-0.113-0.596-0.436
				c-0.187-0.323-0.224-0.651-0.081-0.734C374.843,415.976,375.109,416.17,375.296,416.492z"/>
		</g>
		<g>
			<path style="fill:#94BA30;" d="M450.191,452.667h-65.384c0,0,7.058-24.876,24.258-15.349c6.087-12.967,19.815-18.253,27.261-5.27
				C443.199,425.557,464.063,433.349,450.191,452.667z"/>
			<path style="fill:#446E2D;" d="M409.789,441.402c0.382,3.055-7.637,11.265-22.51,5.164l-0.004,0.004
				c-1.683,3.332-2.468,6.097-2.468,6.097h66.601c13.871-19.318-8.209-27.11-15.082-20.619
				C437.472,448.085,417.617,446.94,409.789,441.402z"/>
		</g>
		<g>
			<path style="fill:#94BA30;" d="M49.808,452.667h65.384c0,0-7.057-24.876-24.258-15.349c-6.087-12.967-19.815-18.253-27.261-5.27
				C56.801,425.557,35.938,433.349,49.808,452.667z"/>
			<path style="fill:#446E2D;" d="M90.211,441.402c-0.382,3.055,7.637,11.265,22.509,5.164l0.005,0.004
				c1.682,3.332,2.467,6.097,2.467,6.097H48.591c-13.871-19.318,8.209-27.11,15.083-20.619
				C62.528,448.085,82.383,446.94,90.211,441.402z"/>
		</g>
		<g>
			<path style="fill:#94BA30;" d="M97.032,419.381c0-7.75-27.948-14.487-19.448-28.987s-22.5-23.5-11-38.25s1.75-39.75,18.5-42.75
				s34.654-17.483,37.5,18.25c2.25,28.25,19,11,15,38.42c-3.158,21.652-20.396,21.188-27.504,31.58
				C103.496,407.27,97.032,429.881,97.032,419.381z"/>
			<g>
				<polygon style="fill:#664A34;" points="96.275,452.667 102.159,452.667 99.218,323.334 				"/>
				<polygon style="fill:#664A34;" points="99.218,406.668 120.942,361.334 99.218,400.501 				"/>
				<polygon style="fill:#664A34;" points="99.218,372.501 88.109,343.834 99.218,376.834 				"/>
				<polygon style="fill:#664A34;" points="109.442,385.332 120.942,379.001 109.442,383.001 				"/>
				<polygon style="fill:#664A34;" points="95.592,366.064 88.109,357.751 94.776,363.639 				"/>
			</g>
			<path style="opacity:0.4;fill:#446E2D;" d="M137.584,366.064c4-27.42-12.75-10.17-15-38.42c-1.059-13.289-4.2-19.63-8.59-22.202
				c13.154,19.128-13.66,27.537-5.66,43.036c8,15.5-1.667,32.167-15.333,28.357c-13.662-3.81-1.342,28.623-16.844,20.586
				c1.977,9.891,20.875,15.585,20.875,21.961c0,10.5,6.464-12.111,13.048-21.737C117.188,387.251,134.426,387.716,137.584,366.064z"
				/>
		</g>
		
			<rect x="287.151" y="-2.968" transform="matrix(0.1702 -0.9854 0.9854 0.1702 199.8701 320.7938)" style="fill:#E7683A;" width="6.5" height="89.39"/>
		<polygon style="opacity:0.5;fill:#886649;" points="248.805,37.843 248.805,40.625 332.027,54.625 332.027,52.208 		"/>
	</g>
</g>
<g id="DESIGNED_BY_FREEPIK">
	<g>
		<g id="XMLID_319_">
			<g id="XMLID_338_">
				<path id="XMLID_346_" style="fill:#A4B6C5;" d="M260.103,465.465c-0.432,0.443-0.803,0.932-1.107,1.453l-0.465-0.24
					c-0.068-0.297-0.35-0.502-0.66-0.467c-0.33,0.039-0.566,0.34-0.529,0.67c0.039,0.332,0.34,0.568,0.67,0.529
					c0.066-0.008,0.127-0.025,0.184-0.053l0.451,0.234c-0.25,0.555-0.432,1.139-0.539,1.744l0.748,0.131
					c0.229-1.305,0.85-2.506,1.791-3.473L260.103,465.465z"/>
				<path id="XMLID_345_" style="fill:#A4B6C5;" d="M265.592,463.164c-0.172,0-0.342,0.006-0.51,0.016l-0.074-0.625
					c0.188-0.15,0.297-0.389,0.266-0.645c-0.045-0.393-0.402-0.674-0.795-0.629c-0.393,0.047-0.674,0.402-0.627,0.797
					c0.029,0.254,0.189,0.461,0.404,0.563l0.072,0.625c-0.713,0.115-1.402,0.332-2.059,0.645l0.326,0.686
					c0.936-0.447,1.941-0.674,2.996-0.674c0.496,0,0.992,0.053,1.475,0.158l0.16-0.742
					C266.691,463.223,266.143,463.164,265.592,463.164z"/>
				<path id="XMLID_344_" style="fill:#A4B6C5;" d="M272.193,465.711c0.332-0.041,0.566-0.342,0.525-0.672
					c-0.039-0.332-0.34-0.566-0.672-0.525c-0.309,0.037-0.535,0.303-0.529,0.607l-0.416,0.363c-0.418-0.43-0.891-0.813-1.408-1.139
					l-0.404,0.641c1.135,0.715,2.021,1.727,2.564,2.926l0.69-0.313c-0.25-0.555-0.566-1.072-0.941-1.545l0.402-0.352
					C272.064,465.715,272.129,465.719,272.193,465.711z"/>
				<path id="XMLID_343_" style="fill:#A4B6C5;" d="M265.045,473.371c-0.387,0.023-0.775,0.035-1.158,0.035
					c-0.879,0-1.732-0.061-2.478-0.18c-0.391-0.061-0.846-0.154-1.27-0.291c1.047,1.861,3.068,3.125,5.389,3.125
					c2.855,0,5.262-1.916,5.949-4.504c-0.682,0.449-1.506,0.826-2.459,1.123C267.838,473.047,266.463,473.287,265.045,473.371z"/>
				<path id="XMLID_339_" style="fill:#A4B6C5;" d="M265.592,464.68c-3.352,0-6.08,2.666-6.08,5.943c0,0.426,0.047,0.85,0.137,1.262
					c0.674,0.482,2.707,0.891,5.348,0.73c2.881-0.174,5.297-0.957,6.672-2.158c-0.004-0.195-0.02-0.391-0.045-0.582
					C271.244,466.914,268.65,464.68,265.592,464.68z M263.432,471.195c-1.02,0-1.85-0.83-1.85-1.85c0-1.022,0.83-1.852,1.85-1.852
					c1.02,0,1.85,0.83,1.85,1.852C265.281,470.365,264.451,471.195,263.432,471.195z M268.17,470.287
					c-0.75,0-1.361-0.611-1.361-1.361s0.611-1.359,1.361-1.359s1.359,0.609,1.359,1.359S268.92,470.287,268.17,470.287z"/>
			</g>
			<path id="XMLID_336_" style="fill:#A4B6C5;" d="M281.596,466.547c-0.295-0.115-0.807-0.309-1.383-0.238
				c-0.551,0.07-0.844,0.342-0.844,1.008v0.865h2.229v1.717h-2.229v5.455h-1.932v-5.455h-1.34v-1.717h1.34v-0.889
				c0-1.68,0.895-2.781,2.568-2.781c0.643,0,1.156,0.121,1.59,0.307V466.547z"/>
			<path id="XMLID_334_" style="fill:#A4B6C5;" d="M286.297,469.879c-0.176-0.029-0.357-0.047-0.525-0.047
				c-0.894,0-1.51,0.549-1.51,1.613v3.908h-1.932v-7.172h1.873v0.785c0.451-0.674,1.139-0.977,2.02-0.977
				c0.414,0,0.848,0.127,1.096,0.336L286.297,469.879z"/>
			<path id="XMLID_331_" style="fill:#A4B6C5;" d="M293.965,471.758c0,0.221-0.016,0.488-0.037,0.65h-5.084
				c0.207,1.037,0.932,1.488,1.842,1.488c0.623,0,1.295-0.252,1.815-0.69l1.133,1.244c-0.814,0.748-1.852,1.088-3.057,1.088
				c-2.199,0-3.725-1.496-3.725-3.752c0-2.258,1.48-3.797,3.627-3.797C292.543,467.99,293.957,469.522,293.965,471.758z
				 M288.852,471.092h3.174c-0.178-0.918-0.732-1.438-1.561-1.438C289.555,469.654,289.021,470.203,288.852,471.092z"/>
			<path id="XMLID_328_" style="fill:#A4B6C5;" d="M301.619,471.758c0,0.221-0.016,0.488-0.037,0.65h-5.086
				c0.207,1.037,0.934,1.488,1.844,1.488c0.621,0,1.295-0.252,1.813-0.69l1.133,1.244c-0.814,0.748-1.85,1.088-3.057,1.088
				c-2.199,0-3.723-1.496-3.723-3.752c0-2.258,1.48-3.797,3.627-3.797C300.197,467.99,301.611,469.522,301.619,471.758z
				 M296.504,471.092h3.176c-0.178-0.918-0.734-1.438-1.563-1.438C297.207,469.654,296.674,470.203,296.504,471.092z"/>
			<path id="XMLID_325_" style="fill:#A4B6C5;" d="M309.965,471.764c0,2.154-1.496,3.775-3.473,3.775
				c-0.961,0-1.643-0.377-2.109-0.932v3.707h-1.924v-10.133h1.887v0.793c0.467-0.586,1.154-0.984,2.139-0.984
				C308.469,467.99,309.965,469.611,309.965,471.764z M304.287,471.764c0,1.133,0.748,1.977,1.844,1.977
				c1.139,0,1.85-0.881,1.85-1.977c0-1.094-0.711-1.975-1.85-1.975C305.035,469.789,304.287,470.633,304.287,471.764z"/>
			<path id="XMLID_322_" style="fill:#A4B6C5;" d="M313.068,465.836c0,0.695-0.541,1.229-1.236,1.229
				c-0.697,0-1.229-0.533-1.229-1.229c0-0.695,0.531-1.244,1.229-1.244C312.527,464.592,313.068,465.141,313.068,465.836z
				 M312.809,475.353h-1.932v-7.172h1.932V475.353z"/>
			<path id="XMLID_320_" style="fill:#A4B6C5;" d="M316.031,470.736l2.703-2.555h2.367l-3.479,3.375l3.502,3.797h-2.377l-2.717-2.9
				v2.9H314.1v-10.658h1.932V470.736z"/>
		</g>
		<g>
			<path style="fill:#A4B6C5;" d="M184.412,475.289v-1.055c-0.527,0.719-1.391,1.23-2.387,1.23c-1.846,0-3.149-1.406-3.149-3.705
				c0-2.256,1.289-3.721,3.149-3.721c0.952,0,1.816,0.469,2.387,1.244v-3.764h1.099v9.77H184.412z M184.412,473.371v-3.209
				c-0.395-0.615-1.245-1.143-2.124-1.143c-1.42,0-2.27,1.172-2.27,2.74c0,1.566,0.85,2.725,2.27,2.725
				C183.167,474.484,184.017,473.986,184.412,473.371z"/>
			<path style="fill:#A4B6C5;" d="M186.932,471.744c0-2.051,1.465-3.705,3.486-3.705c2.139,0,3.398,1.67,3.398,3.793v0.279h-5.727
				c0.088,1.332,1.025,2.445,2.549,2.445c0.806,0,1.626-0.322,2.182-0.893l0.527,0.717c-0.703,0.703-1.655,1.084-2.812,1.084
				C188.44,475.465,186.932,473.957,186.932,471.744z M190.403,468.947c-1.509,0-2.256,1.273-2.314,2.357h4.643
				C192.718,470.25,192.015,468.947,190.403,468.947z"/>
			<path style="fill:#A4B6C5;" d="M194.607,474.352l0.571-0.791c0.469,0.543,1.362,1.012,2.329,1.012c1.085,0,1.67-0.514,1.67-1.217
				c0-1.713-4.38-0.658-4.38-3.281c0-1.098,0.952-2.035,2.636-2.035c1.202,0,2.051,0.453,2.623,1.025l-0.513,0.762
				c-0.424-0.514-1.201-0.895-2.109-0.895c-0.966,0-1.567,0.484-1.567,1.113c0,1.553,4.379,0.527,4.379,3.281
				c0,1.188-0.952,2.139-2.783,2.139C196.306,475.465,195.325,475.113,194.607,474.352z"/>
			<path style="fill:#A4B6C5;" d="M201.477,466.471c0-0.41,0.337-0.746,0.732-0.746c0.41,0,0.747,0.336,0.747,0.746
				c0,0.41-0.337,0.732-0.747,0.732C201.814,467.203,201.477,466.881,201.477,466.471z M201.667,475.289v-7.074h1.099v7.074H201.667
				z"/>
			<path style="fill:#A4B6C5;" d="M204.582,477.105l0.556-0.82c0.586,0.703,1.289,0.967,2.3,0.967c1.172,0,2.27-0.57,2.27-2.123
				v-1.012c-0.513,0.719-1.377,1.26-2.373,1.26c-1.846,0-3.149-1.377-3.149-3.662c0-2.27,1.289-3.676,3.149-3.676
				c0.952,0,1.802,0.469,2.373,1.244v-1.068h1.099v6.869c0,2.344-1.641,3.076-3.369,3.076
				C206.237,478.16,205.416,477.926,204.582,477.105z M209.708,473.254v-3.092c-0.381-0.615-1.23-1.143-2.109-1.143
				c-1.421,0-2.27,1.129-2.27,2.695c0,1.553,0.849,2.695,2.27,2.695C208.478,474.41,209.328,473.869,209.708,473.254z"/>
			<path style="fill:#A4B6C5;" d="M217.413,475.289v-4.629c0-1.244-0.63-1.641-1.582-1.641c-0.864,0-1.685,0.527-2.094,1.1v5.17
				h-1.099v-7.074h1.099v1.025c0.498-0.586,1.464-1.201,2.519-1.201c1.48,0,2.256,0.746,2.256,2.285v4.965H217.413z"/>
			<path style="fill:#A4B6C5;" d="M219.932,471.744c0-2.051,1.465-3.705,3.486-3.705c2.139,0,3.398,1.67,3.398,3.793v0.279h-5.727
				c0.088,1.332,1.025,2.445,2.548,2.445c0.806,0,1.626-0.322,2.183-0.893l0.527,0.717c-0.703,0.703-1.655,1.084-2.813,1.084
				C221.441,475.465,219.932,473.957,219.932,471.744z M223.404,468.947c-1.509,0-2.256,1.273-2.314,2.357h4.643
				C225.718,470.25,225.015,468.947,223.404,468.947z"/>
			<path style="fill:#A4B6C5;" d="M233.35,475.289v-1.055c-0.527,0.719-1.392,1.23-2.388,1.23c-1.845,0-3.149-1.406-3.149-3.705
				c0-2.256,1.289-3.721,3.149-3.721c0.952,0,1.817,0.469,2.388,1.244v-3.764h1.098v9.77H233.35z M233.35,473.371v-3.209
				c-0.396-0.615-1.245-1.143-2.124-1.143c-1.421,0-2.27,1.172-2.27,2.74c0,1.566,0.85,2.725,2.27,2.725
				C232.105,474.484,232.954,473.986,233.35,473.371z"/>
			<path style="fill:#A4B6C5;" d="M239.692,475.289v-9.77h1.099v3.764c0.571-0.775,1.421-1.244,2.388-1.244
				c1.845,0,3.149,1.465,3.149,3.721c0,2.299-1.304,3.705-3.149,3.705c-0.996,0-1.86-0.512-2.388-1.23v1.055H239.692z
				 M242.9,474.484c1.436,0,2.285-1.158,2.285-2.725c0-1.568-0.85-2.74-2.285-2.74c-0.864,0-1.729,0.527-2.109,1.143v3.209
				C241.171,473.986,242.036,474.484,242.9,474.484z"/>
			<path style="fill:#A4B6C5;" d="M247.528,477.063c0.161,0.072,0.425,0.117,0.601,0.117c0.483,0,0.806-0.162,1.055-0.748
				l0.469-1.068l-2.959-7.148h1.187l2.358,5.801l2.344-5.801h1.201l-3.545,8.51c-0.425,1.025-1.143,1.422-2.08,1.436
				c-0.234,0-0.601-0.043-0.806-0.104L247.528,477.063z"/>
		</g>
	</g>
</g>
</svg>
